<?xml version="1.0" encoding="UTF-8"?><svg id="a" xmlns="http://www.w3.org/2000/svg" viewBox="0 0 1200 1200"><defs><style>.i{stroke-width:7.41px;}.i,.j,.k,.l,.m,.n,.o,.p,.q,.r,.s{fill:none;}.i,.j,.k,.l,.t,.u,.v,.o,.w,.p,.q,.r,.s{stroke-linecap:round;stroke-linejoin:round;}.i,.k,.l,.t,.w,.r,.s{stroke:#1d252e;}.x{letter-spacing:-.08em;}.y{letter-spacing:-.08em;}.a`{letter-spacing:-.08em;}.j{stroke:#c6c6c6;stroke-width:7.71px;}.aa{fill:#e9e8e8;}.ab,.v{fill:#fff;}.ac{fill:#ff5f57;}.ad{fill:#febc2e;}.ae{fill:#9dd5c0;}.af,.ag,.t,.u,.ah,.w{fill:#1d252e;}.ai{fill:#27c840;}.k{stroke-width:1.01px;}.l{stroke-width:2px;}.ag{font-size:6.46px;}.ag,.aj,.ak,.ah{font-family:Altivo-Bold, Altivo;}.m{stroke-width:.73px;}.m,.n{stroke:#3b4441;stroke-miterlimit:10;}.al{letter-spacing:0em;}.am{letter-spacing:0em;}.aj{font-size:21.21px;}.aj,.ak{fill:#ecec9d;}.n{stroke-width:4px;}.t,.u,.v,.q,.r{stroke-width:3.71px;}.u{stroke:#fff;}.v,.o,.q{stroke:#9dd5c0;}.o{stroke-width:9.26px;}.ak{font-size:3.91px;}.ah{font-size:35.04px;}.w{stroke-width:.68px;}.p{stroke:#f184b4;stroke-width:9.21px;}.s{stroke-width:3px;}</style></defs><path id="b" class="aa" d="M441.86,467.29c110.69-74.84,364.98-274.07,498.13-158.15,133.15,115.92,60.25,672.6-332,612.66-147.36-22.52-369.99-34.95-401.22-104.04-51.89-114.82,165.98-303.75,235.08-350.47Z"/><g><line class="p" x1="212.16" y1="338.53" x2="410.74" y2="338.53"/><line class="j" x1="212.16" y1="376.55" x2="555.21" y2="376.55"/><line class="j" x1="212.16" y1="414.56" x2="555.21" y2="414.56"/><line class="j" x1="212.16" y1="457.61" x2="555.21" y2="457.61"/><line class="j" x1="212.16" y1="500.65" x2="555.21" y2="500.65"/></g><g><g><path class="t" d="M810.45,244.17l-.09,39.47H126.18l.09-41.24c.01-4.61,3.68-8.35,8.18-8.33l669.79,1.73c3.44,.01,6.23,3.76,6.21,8.38Z"/><g><ellipse class="ae" cx="145.99" cy="254.83" rx="6.92" ry="7.1"/><ellipse class="ab" cx="170.02" cy="254.83" rx="6.92" ry="7.1"/><path class="ab" d="M194.06,247.73l.02,1.85c2.8,0,5.07,2.37,5.06,5.26,0,2.88-2.28,5.23-5.09,5.23-2.8,0-5.07-2.37-5.06-5.26,0-2.88,2.28-5.23,5.07-5.23v-1.85m0,0c-3.81,0-6.91,3.16-6.92,7.08-.01,3.92,3.08,7.11,6.9,7.12h.02c3.81,0,6.91-3.16,6.92-7.08,.01-3.92-3.08-7.11-6.9-7.12h-.02Z"/></g><path class="v" d="M272.7,234.58h85.44c21.02,0,38.08,17.06,38.08,38.08v12.83H234.62v-12.83c0-21.02,17.06-38.08,38.08-38.08Z"/><g><path class="u" d="M557.82,283.64v-11.68c0-20.65-16.74-37.38-37.38-37.38h-86.84c-20.65,0-37.38,16.74-37.38,37.38v11.68"/><path class="u" d="M719.42,283.64v-11.68c0-20.65-16.74-37.38-37.38-37.38h-86.84c-20.65,0-37.38,16.74-37.38,37.38v11.68"/></g><g><line class="q" x1="357.61" y1="253.81" x2="374.28" y2="270.05"/><line class="q" x1="374.06" y1="253.6" x2="357.82" y2="270.27"/></g><polyline class="ab" points="810.45 283.64 810.45 727.92 126.18 727.92 126.18 283.64"/><line class="v" x1="808.48" y1="285.48" x2="396.22" y2="285.48"/><polyline class="r" points="810.45 283.64 810.45 727.92 126.18 727.92 126.18 283.64"/></g><g><line class="o" x1="222.02" y1="337.18" x2="421.81" y2="337.18"/><line class="i" x1="222.02" y1="375.43" x2="567.16" y2="375.43"/><line class="i" x1="222.02" y1="413.68" x2="567.16" y2="413.68"/><line class="i" x1="222.02" y1="456.98" x2="567.16" y2="456.98"/><line class="i" x1="222.02" y1="500.28" x2="567.16" y2="500.28"/></g></g><g><g><path class="ae" d="M702.36,773.81c-.01,5.65-3.14,10.22-6.98,10.21l-9.39-.02-442.61-1.57h-6.4c-5.02-.03-9.06-4.61-9.04-10.26l2.19-365.97c0-.81,.14-1.58,.43-2.32,.62-1.7,1.9-3.14,3.59-4.12,.48-.28,1-.52,1.55-.72,1.09-.39,2.29-.61,3.55-.61l458.39,1.62c1.44,0,2.76,.49,3.88,1.34,.18,.13,.35,.29,.52,.45,1.56,1.43,2.54,3.59,2.53,6.01l-.1,28.78-2.1,337.21Z"/><path class="n" d="M702.36,773.81c-.01,5.65-3.14,10.22-6.98,10.21l-9.39-.02-442.61-1.57h-6.4c-5.02-.03-9.06-4.61-9.04-10.26l2.19-365.97c0-.81,.14-1.58,.43-2.32,.62-1.7,1.9-3.14,3.59-4.12,.48-.28,1-.52,1.55-.72,1.09-.39,2.29-.61,3.55-.61l458.39,1.62c1.44,0,2.76,.49,3.88,1.34,.18,.13,.35,.29,.52,.45,1.56,1.43,2.54,3.59,2.53,6.01l-.1,28.78-2.1,337.21Z"/><path class="t" d="M704.56,408.86l-.1,33.57-474.05-1.91,.1-33.57c.02-5.01,4.07-9.07,9.06-9.06l458.11,1.86c3.81,.01,6.9,4.09,6.88,9.1Z"/><g><circle class="ae" cx="252.38" cy="419.14" r="7.72"/><circle class="ab" cx="279.16" cy="419.14" r="7.72"/><path class="ab" d="M305.94,411.43l.02,1.85c1.57,0,3.04,.62,4.14,1.73,1.1,1.11,1.71,2.59,1.7,4.15,0,3.22-2.64,5.85-5.88,5.85-1.57,0-3.04-.62-4.14-1.73-1.1-1.11-1.71-2.59-1.7-4.15,0-3.22,2.64-5.85,5.86-5.85v-1.85m0,0c-4.25,0-7.7,3.44-7.72,7.69-.01,4.26,3.43,7.73,7.69,7.74h.02c4.25,0,7.7-3.44,7.72-7.69,.01-4.26-3.43-7.73-7.69-7.74h-.02Z"/></g></g><g><text class="ah" transform="translate(283.19 597.46)"><tspan x="0" y="0">CONGR</tspan><tspan class="y" x="128.02" y="0">A</tspan><tspan x="152.19" y="0">TU</tspan><tspan class="am" x="201.45" y="0">L</tspan><tspan class="x" x="221.95" y="0">A</tspan><tspan x="246.12" y="0">TIONS!</tspan></text><g><text class="aj" transform="translate(400.87 640.72)"><tspan x="0" y="0">CLICK HERE!</tspan></text><path class="af" d="M385.56,649.33c0,2.38,2.4,4.32,5.37,4.32h150.66c2.97,0,5.37-1.93,5.37-4.32v-30.41c0-2.38-2.4-4.32-5.37-4.32h-150.66c-2.97,0-5.37,1.93-5.37,4.32v30.41Z"/><g><path class="ab" d="M401.44,633.87c0-4.05,3.03-7.36,7.81-7.36,2.76,0,4.33,.91,5.28,1.63l-1.19,3.1c-1-.81-2.27-1.34-3.73-1.34-2.5,0-4.01,1.74-4.01,3.9s1.46,3.78,4.09,3.78c1.87,0,3.22-.93,4.03-1.61l1.23,2.88c-.74,.76-2.69,2.12-5.68,2.12-5.45,0-7.83-3.39-7.83-7.11Z"/><path class="ab" d="M420.58,626.76v10.56h6.77v3.39h-10.63v-13.96h3.86Z"/><path class="ab" d="M432.77,626.76v13.96h-3.86v-13.96h3.86Z"/><path class="ab" d="M434.68,633.87c0-4.05,3.03-7.36,7.81-7.36,2.76,0,4.33,.91,5.28,1.63l-1.19,3.1c-1-.81-2.27-1.34-3.73-1.34-2.5,0-4.01,1.74-4.01,3.9s1.46,3.78,4.09,3.78c1.87,0,3.22-.93,4.03-1.61l1.23,2.88c-.74,.76-2.69,2.12-5.68,2.12-5.45,0-7.83-3.39-7.83-7.11Z"/><path class="ab" d="M453.81,626.76v5.51h.87l4.48-5.51h4.58l-5.51,6.91v.04l6.09,7h-4.9l-4.73-5.3h-.87v5.3h-3.86v-13.96h3.86Z"/><path class="ab" d="M474.75,626.76v5.11h5.39v-5.11h3.86v13.96h-3.86v-5.45h-5.39v5.45h-3.86v-13.96h3.86Z"/><path class="ab" d="M490.57,635.06v2.33h7.3v3.33h-11.16v-13.96h10.82v3.33h-6.96v2.1h6.02v2.86h-6.02Z"/><path class="ab" d="M499.78,626.76h5.88c4.07,0,5.92,1.97,5.92,4.77,0,1.63-.64,3.1-2.1,3.88v.06l3.01,5.24h-4.28l-2.67-4.56h-1.89v4.56h-3.86v-13.96Zm5.66,6.64c1.63,0,2.33-.53,2.33-1.74,0-.95-.49-1.7-2.23-1.7h-1.91v3.44h1.8Z"/><path class="ab" d="M517.81,635.06v2.33h7.3v3.33h-11.16v-13.96h10.82v3.33h-6.96v2.1h6.02v2.86h-6.02Z"/><path class="ab" d="M528.65,637.45c1.17,0,1.91,.76,1.91,1.74s-.74,1.74-1.91,1.74-1.91-.74-1.91-1.74,.74-1.74,1.91-1.74Zm-.83-1.61s-.91-4.45-.91-7.45v-1.76s.68-.17,1.74-.17,1.74,.17,1.74,.17v1.76c0,2.99-.91,7.45-.91,7.45h-1.65Z"/></g></g></g></g><g><g><g><g><path class="ae" d="M742.77,768.41l13.63,92.34c0,.16,.01,.31,.02,.46l153.05-.03c0-.16,0-.31,0-.46l-13.61-92.34c-.15-1.15-.54-2.25-1.14-3.28-.65-1.12-1.56-2.13-2.63-2.93-.36-.27-.76-.53-1.21-.76-1.32-.71-2.77-1.08-4.21-1.08l-136.87,.03c-4.48,0-7.64,3.61-7.05,8.06"/><polygon class="af" points="749.21 766.12 891.2 766.12 904.29 861.53 762.3 861.53 749.21 766.12"/><polygon class="ab" points="751.2 767.85 751.98 773.5 752.15 774.74 763.81 859.79 902.3 859.79 890.63 774.74 889.69 767.85 751.2 767.85"/><path class="af" d="M756.57,864.6l-.44-2.15c-.14-.9,.56-1.71,1.47-1.71l182.73,.31c1.29,0,2.38,1.06,2.42,2.35l-.15,2.31c.03,1-.75,1.11-1.74,1.11l-184.29-2.22Z"/><path class="ab" d="M756.57,864.6l.55,4.05c.15,1.1,1.09,1.93,2.21,1.93l180.77-.31c1.29,0,2.38-1.06,2.42-2.35l.07-2.21c.03-1-.75-1.11-1.74-1.11h-184.29Z"/><path class="k" d="M756.8,866.27l.33,2.39c.15,1.1,1.09,1.93,2.21,1.93l180.77-.31c1.29,0,2.38-1.06,2.42-2.35l.04-1.1"/></g><polygon class="ae" points="751.2 767.85 751.98 773.5 752.15 774.74 890.63 774.74 889.69 767.85 751.2 767.85"/><g><ellipse class="af" cx="756.04" cy="771.26" rx="1.13" ry="1.38" transform="translate(-323.24 811.23) rotate(-47.69)"/><ellipse class="ab" cx="760.35" cy="771.26" rx="1.13" ry="1.38" transform="translate(-321.83 814.43) rotate(-47.69)"/><path class="ab" d="M764.42,770.02v.26c.56,0,1.12,.48,1.24,1.04,.05,.26,0,.49-.14,.67-.14,.17-.35,.26-.6,.26-.56,0-1.12-.48-1.23-1.04-.05-.26,0-.5,.14-.67,.14-.17,.35-.26,.59-.26v-.26m0,0c-.69,0-1.13,.55-.99,1.24,.14,.69,.8,1.25,1.49,1.25h0c.69,0,1.13-.55,.99-1.24-.14-.69-.8-1.25-1.49-1.25h0Z"/></g></g><g><g><path class="ae" d="M874.52,850.02c.14,1.03-.32,1.87-1.02,1.87h-1.72l-80.93-.29h-1.17c-.92,0-1.77-.84-1.91-1.88l-8.81-66.88c-.02-.15-.01-.29,.02-.42,.07-.31,.27-.57,.55-.75,.08-.05,.17-.09,.26-.13,.19-.07,.4-.11,.63-.11l83.82,.3c.26,0,.52,.09,.74,.24,.04,.02,.07,.05,.11,.08,.32,.26,.55,.66,.61,1.1l.7,5.26,8.1,61.63Z"/><path class="m" d="M874.52,850.02c.14,1.03-.32,1.87-1.02,1.87h-1.72l-80.93-.29h-1.17c-.92,0-1.77-.84-1.91-1.88l-8.81-66.88c-.02-.15-.01-.29,.02-.42,.07-.31,.27-.57,.55-.75,.08-.05,.17-.09,.26-.13,.19-.07,.4-.11,.63-.11l83.82,.3c.26,0,.52,.09,.74,.24,.04,.02,.07,.05,.11,.08,.32,.26,.55,.66,.61,1.1l.7,5.26,8.1,61.63Z"/><path class="w" d="M865.74,783.33l.83,6.13-86.68-.35-.83-6.13c-.12-.92,.52-1.66,1.43-1.65l83.77,.34c.7,0,1.36,.75,1.49,1.66Z"/><g><ellipse class="ac" cx="783.36" cy="785.2" rx="1.32" ry="1.51" transform="translate(-325.17 822.01) rotate(-46.97)"/><ellipse class="ad" cx="788.25" cy="785.2" rx="1.32" ry="1.51" transform="translate(-323.62 825.58) rotate(-46.97)"/><ellipse class="ai" cx="793.15" cy="785.2" rx="1.32" ry="1.51" transform="translate(-322.06 829.16) rotate(-46.97)"/></g></g><g><text class="ag" transform="translate(793.48 817.79) skewX(7.84)"><tspan x="0" y="0">CONGR</tspan><tspan class="a`" x="23.62" y="0">A</tspan><tspan x="28.08" y="0">TU</tspan><tspan class="al" x="37.16" y="0">L</tspan><tspan class="a`" x="40.95" y="0">A</tspan><tspan x="45.41" y="0">TIONS!</tspan></text><g><text class="ak" transform="translate(816.07 825.7) skewX(7.84)"><tspan x="0" y="0">CLICK HERE!</tspan></text><path class="af" d="M813.49,827.27c.06,.44,.55,.79,1.09,.79h27.53c.54,0,.93-.35,.87-.79l-.77-5.56c-.06-.44-.55-.79-1.09-.79h-27.53c-.54,0-.93,.35-.87,.79l.77,5.56Z"/><g><path class="ab" d="M816,824.45c-.1-.74,.37-1.35,1.24-1.35,.5,0,.81,.17,1.01,.3l-.14,.57c-.2-.15-.45-.24-.72-.24-.46,0-.69,.32-.63,.71s.36,.69,.84,.69c.34,0,.57-.17,.7-.29l.3,.53c-.12,.14-.44,.39-.99,.39-1,0-1.52-.62-1.61-1.3Z"/><path class="ab" d="M819.32,823.15l.27,1.93h1.24l.09,.62h-1.94l-.35-2.55h.71Z"/><path class="ab" d="M821.55,823.15l.35,2.55h-.71l-.35-2.55h.71Z"/><path class="ab" d="M822.08,824.45c-.1-.74,.37-1.35,1.24-1.35,.5,0,.81,.17,1.01,.3l-.14,.57c-.2-.15-.45-.24-.72-.24-.46,0-.69,.32-.63,.71s.36,.69,.84,.69c.34,0,.57-.17,.7-.29l.3,.53c-.12,.14-.44,.39-.99,.39-1,0-1.52-.62-1.61-1.3Z"/><path class="ab" d="M825.4,823.15l.14,1.01h.16l.68-1.01h.84l-.83,1.26h0l1.29,1.29h-.9l-1-.97h-.16l.13,.97h-.71l-.35-2.55h.71Z"/><path class="ab" d="M829.22,823.15l.13,.93h.98l-.13-.93h.71l.35,2.55h-.71l-.14-1h-.98l.14,1h-.71l-.35-2.55h.71Z"/><path class="ab" d="M832.32,824.66l.06,.43h1.33l.08,.61h-2.04l-.35-2.55h1.98l.08,.61h-1.27l.05,.38h1.1l.07,.52h-1.1Z"/><path class="ab" d="M833.8,823.15h1.07c.74,0,1.13,.36,1.2,.87,.04,.3-.04,.57-.29,.71h0l.68,.97h-.78l-.6-.83h-.34l.11,.83h-.71l-.35-2.55Zm1.2,1.21c.3,0,.41-.1,.38-.32-.02-.17-.13-.31-.45-.31h-.35l.09,.63h.33Z"/><path class="ab" d="M837.3,824.66l.06,.43h1.33l.08,.61h-2.04l-.35-2.55h1.98l.08,.61h-1.27l.05,.38h1.1l.07,.52h-1.1Z"/><path class="ab" d="M839.34,825.1c.21,0,.37,.14,.39,.32s-.09,.32-.31,.32-.37-.14-.39-.32,.09-.32,.31-.32Zm-.19-.29s-.28-.81-.35-1.36l-.04-.32s.12-.03,.31-.03,.32,.03,.32,.03l.04,.32c.08,.55,.02,1.36,.02,1.36h-.3Z"/></g></g></g></g></g><g><polygon class="ab" points="771.88 874.74 737.42 940.84 722.85 940.84 757.31 874.74 771.88 874.74"/><polyline class="l" points="765.13 887.7 737.42 940.84 722.85 940.84 750.14 888.5"/><polygon class="ab" points="928.89 874.74 963.35 940.84 977.92 940.84 943.46 874.74 928.89 874.74"/><polyline class="l" points="936.06 888.5 963.35 940.84 977.92 940.84 951.26 889.7"/><rect class="ae" x="722.85" y="871.2" width="257.81" height="11.46" transform="translate(1703.5 1753.87) rotate(180)"/><polyline class="k" points="722.85 878.57 722.85 871.2 895.64 871.2"/><rect class="af" x="722.85" y="882.67" width="257.81" height="3.16" transform="translate(1703.5 1768.5) rotate(-180)"/></g></g><g><g><path class="ab" d="M1045.7,814.15c1.3,10.66,8.3,36.01,7.23,42.14-1.08,6.13-61.55,44.46-95.24,64.22-14.77,1.36-28.3-1-22.8-11.07,5.5-10.07,30.94-9.25,24.97-3.57-.4,.38,59.36-51.64,62.16-58.16,.55-4.34-10.07-14.99-9.87-18.7"/><path class="s" d="M1046.96,820.89c1.3,10.66,7.05,29.27,5.98,35.39-1.08,6.13-61.55,44.46-95.24,64.22-14.77,1.36-28.3-1-22.8-11.07,5.5-10.07,30.94-9.25,24.97-3.57-.4,.38,59.36-51.64,62.16-58.16,.55-4.34-8.36-12.22-8.36-12.22"/></g><path class="ab" d="M952.74,679.88l-7.16,14.34c-2.79,8.9-2.98,15.17,2.91,24.57,5.36,4.62,8.44,7.28,15.18,10.32l-.4,22.37c-8.79-.76-13.13-.63-17.31,1.58,6.3,6.84,15.9,14.11,31.62,14.11s23.87-8.73,23.87-8.73l-16.69-5.66,.98-25.26c7.19-4.23,8.78-7.73,9.25-15.81l-1.12-9.22-31.8-22.6h-9.32Z"/><path id="c" class="s" d="M992.6,755.67c-2.6-1-5.22-1.98-7.85-2.89,.4-9.07,1.34-15.71,.98-25.26,6.49-3.55,8.94-7.72,9.25-15"/><path id="d" class="s" d="M946.75,692.78c-4.58,7.12-5.36,12.06-1.74,20.09,3.82,8.46,9.88,13.13,18.66,16.24-.36,8.54-.04,14.25-.4,22.37-3.07-.48-6.64-.41-10.19,0"/><path id="e" class="af" d="M1025.43,955.36c-1.62-19.13-3.3-38.91-5.04-59.33-39.11-2.11-78.2-4.22-117.33-6.33-.51,26.96-1,52.81-1.47,77.55"/><path class="af" d="M887.38,900.31s-53.53-16.99-63-10.22c-9.47,6.76,1.35,31.75,9.47,48.7,16.52,34.48,105.29,41.14,123.32,40.59,18.03-.55-8.27-63.59-8.27-63.59l-61.52-15.48Z"/><path class="af" d="M997.51,902.76s53.53-16.98,63-10.22c9.47,6.76,0,32.47-9.47,48.7-9.47,16.23-65.28,45.31-108.98,36.95-43.7-8.36,21.47-57.9,21.47-57.9l33.98-17.54Z"/><path id="f" class="af" d="M996.07,707.02c-7.99,2.92-17.71,3.64-26.09,2.12-10.55-3.73-8.72-15.92-8.9-24.6-6.45-7.5-13.3,4.75-16.63-9.75-4.35-18.93,11.7-27.03,33.12-25.02,6.76,.64,11.94,4.35,13,11.64,4.92,.89,9.22,2.1,11.34,6.76,3.09,12.57-.89,27.21-5.84,38.84Z"/><path class="ae" d="M887.38,921.25c20.27,10.51,37.3,19.63,61.6,19.52,24.28-.12,52.69-7.22,76.33-14.33,1.35-22.39-4.41-26.42-2.72-53.28,.65-10.21,2.2-24.76,3.34-38.42,1.9-22.27,9.64-63.19,1.96-68.95-7.68-5.76-15.8-7.2-28.48-9.07-8.25,7.05-23.84,5.44-32.74,3.74-7.9-1.5-14.39-2.7-17.99-9.28-5.38,.1-10.87,.87-16.32,1.89-.07,0-.15,.01-.22,.04-4.39,1.08-8.62,2.52-12.71,4.28-4.01,21.26-7.19,42.73-10.55,64.14-5.3,33.63-11.12,67.17-21.51,99.73Z"/><path class="ab" d="M902.44,821.85c-10.61,4.12-44.3,14.37-50.82,13.41-6.53-.97-29.41-43.04-54.43-82.33-10.09-14.26-15.5-29.79-1.54-31,13.96-1.21,16.78,10.85,18.42,23.25-.64-.15,38.79,54.3,45.78,57.08,4.62,.47,17.94-13.26,21.8-14.03"/><path class="s" d="M882.74,829.1c-14.39,4.14-26.39,6.86-31.12,6.16-6.53-.97-37.36-51.67-54.43-82.33-10.09-14.26-15.5-29.79-1.54-31,13.96-1.21,15.4,9.23,18.42,23.25-.64-.15,38.79,54.3,45.78,57.08,4.62,.47,12.29-7.73,12.29-7.73"/><path class="ae" d="M874.49,789.62c6.64,12.25,13.3,24.25,17.24,37.66,5.71-1.92,11.44-3.84,17.15-5.75,6.95-2.35,13.91-4.68,20.86-7.01,.88-21.05,1.75-40.39,2.62-61.45h0c-.07,0-.15,.03-.22,.04-4.39,1.08-8.62,2.52-12.71,4.28-16.96,7.26-31.48,19.7-44.95,32.23Z"/><path class="ae" d="M1025.93,834.74c10.5,5.27,19.46-22.53,19.46-22.53l-8.36-37.01s-6.67-8.99-11.37-11.09c-16.24-7.24-1.83,69.08,.28,70.63Z"/><path class="s" d="M883.28,781.64c10.99-9.64,22.82-18.55,36.15-24.26"/><path class="s" d="M894.37,896.67c6.27-24.74,10.54-49.92,14.51-75.14-2.93,.98-5.86,1.97-8.79,2.95"/><path id="g" class="s" d="M958.11,687.19c-2.16-.26-4.33-.51-6.49-.77,2.16,.26,4.33,.51,6.49,.77Z"/><path id="h" class="s" d="M958.27,692.33c-2.16-.26-4.33-.51-6.49-.77,2.16,.26,4.33,.51,6.49,.77Z"/><path class="s" d="M1021.87,786.72s1.79,41.96,1.43,54.52"/></g></svg>