<svg id="visual" viewBox="0 0 960 540" width="960" height="540" xmlns="http://www.w3.org/2000/svg" xmlns:xlink="http://www.w3.org/1999/xlink" version="1.1"><rect x="0" y="0" width="960" height="540" fill="#001220"></rect><path d="M0 347L22.8 342.3C45.7 337.7 91.3 328.3 137 330.5C182.7 332.7 228.3 346.3 274 352.3C319.7 358.3 365.3 356.7 411.2 357.2C457 357.7 503 360.3 548.8 366.8C594.7 373.3 640.3 383.7 686 380.8C731.7 378 777.3 362 823 360C868.7 358 914.3 370 937.2 376L960 382L960 541L937.2 541C914.3 541 868.7 541 823 541C777.3 541 731.7 541 686 541C640.3 541 594.7 541 548.8 541C503 541 457 541 411.2 541C365.3 541 319.7 541 274 541C228.3 541 182.7 541 137 541C91.3 541 45.7 541 22.8 541L0 541Z" fill="#c62368"></path><path d="M0 427L22.8 417.5C45.7 408 91.3 389 137 389.7C182.7 390.3 228.3 410.7 274 412.8C319.7 415 365.3 399 411.2 392C457 385 503 387 548.8 387.8C594.7 388.7 640.3 388.3 686 389.5C731.7 390.7 777.3 393.3 823 398.7C868.7 404 914.3 412 937.2 416L960 420L960 541L937.2 541C914.3 541 868.7 541 823 541C777.3 541 731.7 541 686 541C640.3 541 594.7 541 548.8 541C503 541 457 541 411.2 541C365.3 541 319.7 541 274 541C228.3 541 182.7 541 137 541C91.3 541 45.7 541 22.8 541L0 541Z" fill="#d53867"></path><path d="M0 425L22.8 426.2C45.7 427.3 91.3 429.7 137 426.5C182.7 423.3 228.3 414.7 274 416C319.7 417.3 365.3 428.7 411.2 431C457 433.3 503 426.7 548.8 427.5C594.7 428.3 640.3 436.7 686 442.8C731.7 449 777.3 453 823 451.7C868.7 450.3 914.3 443.7 937.2 440.3L960 437L960 541L937.2 541C914.3 541 868.7 541 823 541C777.3 541 731.7 541 686 541C640.3 541 594.7 541 548.8 541C503 541 457 541 411.2 541C365.3 541 319.7 541 274 541C228.3 541 182.7 541 137 541C91.3 541 45.7 541 22.8 541L0 541Z" fill="#e34c67"></path><path d="M0 442L22.8 444C45.7 446 91.3 450 137 450.2C182.7 450.3 228.3 446.7 274 446.5C319.7 446.3 365.3 449.7 411.2 455.3C457 461 503 469 548.8 473.3C594.7 477.7 640.3 478.3 686 474.7C731.7 471 777.3 463 823 457C868.7 451 914.3 447 937.2 445L960 443L960 541L937.2 541C914.3 541 868.7 541 823 541C777.3 541 731.7 541 686 541C640.3 541 594.7 541 548.8 541C503 541 457 541 411.2 541C365.3 541 319.7 541 274 541C228.3 541 182.7 541 137 541C91.3 541 45.7 541 22.8 541L0 541Z" fill="#ef5f67"></path><path d="M0 497L22.8 493.3C45.7 489.7 91.3 482.3 137 482C182.7 481.7 228.3 488.3 274 493.2C319.7 498 365.3 501 411.2 503.2C457 505.3 503 506.7 548.8 505.7C594.7 504.7 640.3 501.3 686 501.5C731.7 501.7 777.3 505.3 823 507.5C868.7 509.7 914.3 510.3 937.2 510.7L960 511L960 541L937.2 541C914.3 541 868.7 541 823 541C777.3 541 731.7 541 686 541C640.3 541 594.7 541 548.8 541C503 541 457 541 411.2 541C365.3 541 319.7 541 274 541C228.3 541 182.7 541 137 541C91.3 541 45.7 541 22.8 541L0 541Z" fill="#fa7268"></path></svg>